<?xml version="1.0" encoding="UTF-8"?>
<svg id="_图层_1" data-name="图层 1" xmlns="http://www.w3.org/2000/svg" viewBox="0 0 895 444.32">
  <defs>
    <style>
      .cls-1 {
        fill: #ce0606;
      }

      .cls-2 {
        fill: #fff;
        font-family: STLiti, STLiti;
        font-size: 300px;
        letter-spacing: .2em;
      }
    </style>
  </defs>
  <g>
    <path class="cls-1" d="m697.82,424.87c-16.49,1.01-32.5,1.98-49.63,3.03,1.57-2.31,2.23-3.28,2.46-3.62-5.66-.83-11.12-1.7-16.6-2.4-3.84-.49-8.65-2.24-11.41-.84-12.1,6.14-25.05,1.46-37.51,3.12-14.74,1.97-29.75-4.43-45.36.03-9.01,2.57-19.4,1.43-29.17,1.57-3.87.06-7.74-1.29-11.63-1.39-10.28-.28-20.57-.19-30.86-.34-3.66-.05-7.31-.39-10.96-.56-4.07-.19-8.15-.6-12.2-.42-3.7.16-7.59,1.95-10.99,1.3-8.56-1.63-16.77-4.78-25.35-6.25-6.6-1.13-13.55-.85-20.34-.77-3.51.04-7.03,1.54-10.52,1.47-6.73-.14-13.89-2.51-20.06-1.08-10.4,2.41-20.24,3.06-31.32-.77.83,2.18,1.27,3.32,2.08,5.45-4.64-.62-8.3-1.3-12-1.54-3.21-.22-6.52-.29-9.68.17-8.34,1.23-16.57,3.25-24.95,4.07-7.48.73-15.11.05-22.66.39-7.82.35-15.61,1.59-23.43,1.7-14.4.22-28.82-.47-43.21-.09-14.32.38-28.6,1.76-42.92,2.37-5.01.21-10.09-.42-15.11-.94-14.17-1.44-28.31-3.98-42.5-4.22-9.57-.16-19.14,3.3-28.82,4.3-14.15,1.46-28.4,2.17-42.61,3.16-.42.03-.87-.36-1.48-.62v-6.55c.8,1.37,1.43,2.47,2.03,3.51.57-4.62,1.26-8.84,1.56-13.08.31-4.46-1.6-10.07.73-13.18,4.63-6.17,1.57-11.96,2-17.9.15-2.04,2.57-3.94,4.29-6.38-2.58-8.16-6.34-17-7.93-26.15-1.14-6.56.6-13.54,1.14-20.33.97-12.15-4.42-24.29.04-36.53.53-1.45-2.43-3.78-3.42-5.85-1.69-3.52-5.55-8.84-4.19-10.46,6.52-7.78,3.21-15.72,2.57-23.7-.18-2.21-1.07-5.07.08-6.56,5.57-7.29,4.77-15.08,3.54-23.11-1.53-9.95-2.47-19.98-4.33-29.87-1.13-5.98-3.53-11.76-5.36-17.62.6-.18,1.21-.36,1.81-.54,1.87,2.37,3.73,4.74,5.96,7.57.52-2.62.91-4.4,1.22-6.19.74-4.22,1.6-7.64-1.71-12.32-2.77-3.92-7.67-10.61-1.68-16.93.84,1.24,1.45,2.15,2.48,3.66.69-6.46,2.81-12.59,1.59-18.13-1.8-8.2-5.97-15.98-9.11-23.94-.5-1.27-1.32-2.6-1.22-3.85.61-7.89,1.48-15.77,2.18-23.66.17-1.9.02-3.83.02-5.74-.66.02-1.32.04-1.99.06-.45,5.79-.91,11.57-1.36,17.36-.31-.01-.63-.03-.94-.04,0-15.47,0-30.94,0-46.4.5,0,1,.02,1.5.03.33.47.66.94,2.21,3.17,0-13.36,0-24.66,0-35.72-.35.42-.91,1.09-1.47,1.76-1.3-2.4-2.61-4.79-4.85-8.91,6.05.9,9.89,1.7,13.78,1.99,3.86.29,7.77.06,11.65.06l-.05-1.16c-8.55-.87-17.1-1.74-25.62-2.61C4.34,29.47,2.3,50.71.86,71.98.04,84.14.13,96.35,0,108.53c-.02,2.22.88,4.45,1.37,6.68,1.83,8.24,5.26,16.5,5.15,24.72-.2,14.87-2.57,29.72-3.88,44.59-.28,3.16-1.02,6.86.37,9.47,3.49,6.53,1.65,12.3-1.05,18.32-.93,2.07-1.68,4.37-1.7,6.57-.05,8.83-.09,17.67.53,26.47.29,4.1,2.61,8.07,3.06,12.19.6,5.59,2.64,12.68-.23,16.54-3.91,5.26-2.92,9.63-2.49,14.66.27,3.07.72,6.14.69,9.21-.06,5.91-.77,11.84-.54,17.74.49,12.28,1.75,24.54,2.07,36.81.27,10.43-.58,20.89-.52,31.33.09,16.37.73,32.75.76,49.12.02,10.79.4,11.5,12.55,11.37,41.9-.46,83.8-1.06,125.7-1.46,35.67-.34,71.34-.55,107.02-.7,133.51-.58,267.02-1.23,400.54-1.49,15.96-.03,29.55-5.31,43.15-11.41,2.15-.97,3.7-3.04,5.26-4.38Z"/>
    <path class="cls-1" d="m546.35,2.21c-16.36-.12-32.75.52-49.07-.14-28.4-1.15-56.73,2.26-85.25-.82-19.85-2.15-40.17-.86-60.29-.93-17.4-.06-34.79.12-52.19.2-2.03,0-4.06-.05-6.08.08-15.52,1.06-31.02,2.38-46.55,3.18-14.38.75-28.81.68-43.19,1.52-8.21.48-16.33,2.06-25.71,3.31,1.85,1.46,2.32,2.1,2.93,2.25,1.7.42,3.46.84,5.2.9,29.58,1.03,59.16,2.3,88.75,2.92,44.31.93,88.62,1.78,132.94,2,73.68.36,147.37.22,221.06.22,47.74,0,95.48-.12,143.22-.15,15.71-.01,31.43-.29,47.12.21,15.4.49,30.76,1.86,46.15,2.77,2.97.18,5.96.03,10.25.03,0,135.5,0,270.2,0,405.44-31.88.87-62.63-.48-94.7,3.72,2.19,1.42,2.68,1.93,3.29,2.1,1.68.48,3.4.94,5.13,1.19,29.8,4.32,59.63,8.02,89.96,5.93,12.42-.86,12.49-.69,12.6-11.75.16-15.73.62-31.47.59-47.2-.04-21.89-.25-43.78-.71-65.67-.43-20.46-1.12-40.91-2.03-61.36-.47-10.62-1.64-21.21-2.55-31.81-.35-4.07-2.66-8.86-1.01-12.04,4.95-9.59,3.44-19.51,3.9-29.33.9-19.01,1.65-38.04,2.16-57.06.46-17.47.55-34.95.71-52.42.05-5.7-.51-11.41-.18-17.09.24-4.11,2.07-8.16,2.17-12.26.16-6.97-.55-13.95-.76-20.93-.13-4.5-.03-9-.03-13.82-12.38,0-24.05.15-35.71-.03-23.83-.38-47.66-1.05-71.49-1.35-7.15-.09-14.32.95-21.48.91-7.51-.04-15.01-.92-22.53-1.14-32.3-.95-64.6-2.1-96.91-2.55-14.36-.2-28.75,1.47-43.13,1.59-18.86.15-37.73-.48-56.6-.62Z"/>
    <path class="cls-1" d="m469.27,401.32c0,.63.02,1.27.03,1.9,56.18,0,112.36,0,168.53,0l-.02-1.72c-56.19-1.06-112.36-.5-168.54-.17Z"/>
    <path class="cls-1" d="m103.69,2.54c-1.53.38-3.06.77-4.6,1.15h4.42c.06-.38.12-.77.18-1.15Z"/>
    <path class="cls-1" d="m45.9,9.67c1.05.19,3.14.58,5.23.96-.04.33-.08.66-.12.99-2.6.18-5.2.37-7.81.55.02.13.03.26.05.39,17.78-.91,35.56-1.83,53.34-2.73,2.02-.1,4.17.32,6.02-.2,1.55-.44,2.75-1.89,5.23-3.73-4.31-.58-6.71-.9-9.12-1.22-.02-.29-.05-.59-.07-.88.15-.04.29-.07.44-.11-15.22,0-30.45,0-45.67,0,.01.31.03.63.04.94,2.51.54,5.02,1.08,7.53,1.62-.01.35-.03.7-.04,1.05-5.33.84-10.65,1.68-15.05,2.37Z"/>
    <path class="cls-1" d="m57.78,209.42c-.84.01-1.67.02-2.51.04,0,25.18,0,50.36,0,75.44.32-3.87.99-7.91.91-11.93-.19-9.17-.34-9.16,1.6-9.08,0-18.56,0-36.51,0-54.46Z"/>
    <path class="cls-1" d="m349.77,403.88l-.19-1.34c-22.69,0-45.38,0-68.08,0,.07.97.14,1.94.21,2.91,7.68-.58,15.36-1.57,23.04-1.61,7.51-.03,15.03,1.29,22.55,1.32,7.49.03,14.98-.82,22.47-1.28Z"/>
    <path class="cls-1" d="m59.51,400.75c-.75-2.63-1.49-5.22-2.74-9.61v12.7c14.05,0,27.81,0,41.57,0,.06-.47.12-.94.18-1.41-12.9-.55-25.8-1.11-39.01-1.68Z"/>
    <path class="cls-1" d="m671.63,401.55c0,.32.01.64.02.97,17.08,0,34.16,0,51.24,0,.03-.32.05-.64.08-.97-17.11,0-34.22,0-51.34,0Z"/>
    <path class="cls-1" d="m724.13,56.15c10.27,0,20.55.18,30.81-.11,3-.08,5.95-1.49,8.92-2.29-.29-1.04-.58-2.09-.86-3.13-6.35,1.19-12.65,2.85-19.07,3.43-6.55.6-13.22.13-19.84.13.01.66.03,1.31.04,1.97Z"/>
    <path class="cls-1" d="m759.58,401.28c.01.36.02.72.03,1.07,13.82,0,27.63,0,41.45,0,0-.36,0-.72-.01-1.07-13.82,0-27.65,0-41.47,0Z"/>
    <path class="cls-1" d="m57.19,86.52c0-9.79,0-19.59,0-29.38-.53,9.77-1.05,19.55-1.58,29.32.53.02,1.05.04,1.58.06Z"/>
    <path class="cls-1" d="m57.19,50.4v6.74c.12-2.14.23-4.28.35-6.42-.12-.11-.23-.21-.35-.32Z"/>
    <path class="cls-1" d="m441.53,401.91c-9.01.53-18.03,1.06-27.04,1.58.07.53.14,1.06.21,1.58,9.01-.39,18.01-.79,27.02-1.18-.06-.66-.13-1.32-.19-1.99Z"/>
    <path class="cls-1" d="m138.05,48.27c-8.23,0-16.45,0-24.68,0,.04.18.07.36.11.54h24.63c-.02-.18-.04-.36-.06-.54Z"/>
    <path class="cls-1" d="m691.03,52.74c9.34,0,18.68,0,28.03,0,0-.39,0-.78,0-1.17-9.23,0-18.46,0-27.69,0-.11.39-.22.78-.33,1.17Z"/>
    <g>
      <path class="cls-1" d="m248.84,51.17c-1.68,1.07-3.12,1.25-4.57,1.27-13.33.19-26.68.75-39.99.38-9.9-.28-19.75-1.84-29.64-2.68-1.95-.16-3.97.38-5.96.58-5.25.52-10.51,1.55-15.75,1.47-29.08-.49-58.16-1.2-87.23-1.98-4.15-.11-6.1.89-5.9,4.92.51,10.49.5,21.01,1.23,31.49.36,5.17,1.93,10.26,2.77,15.41.1.62-.87,1.39-1.63,2.5-1.38-1.72-2.41-3-3.44-4.27-.69.15-1.38.3-2.08.45.22,2.69-.47,5.79.79,7.99,10.3,17.9,3.04,36.74,3.81,55.16-.73-3.89-1.45-7.77-2.18-11.66l-1.18.19c0,6.67,0,13.35,0,20.71,2.05-1.1,3.32-1.79,5.67-3.06-.38,6.7-.71,12.33-1.14,19.79-1.82-2.57-2.48-3.5-3.7-5.22.71,7.62,1.31,14.04,1.91,20.46.51-.06,1.01-.11,1.52-.17.18-3.34.36-6.68.54-10.02l1.4.02v95.96c-.73.07-1.46.15-2.19.22-1.03-2.84-2.06-5.68-3.02-8.32-1.24,29.68-2.47,59.42-3.71,89.16.17,0,.33,0,.5,0,.56-4.43,1.11-8.85,1.67-13.28,1.08,0,2.16.02,3.24.02.73,6.42,1.76,12.82,2.12,19.26.37,6.52.08,13.08.08,19.86,13.59,0,26.43-.06,39.27.03,5.99.04,12.03.02,17.96.63,6.67.69,13.21,2.41,19.88,3.05,8.48.81,17.02,1.32,25.54,1.34,6.92.02,14.37.44,20.65-1.62,11.54-3.78,22.87-3.26,34.62-1.46-7.51,1.18-15.01,2.35-22.52,3.53,16.47.21,32.59-1.48,48.76-2.28,26.96-1.33,53.95-2.64,80.94-2.84,12.07-.09,24.17,2.6,36.27,3.85,2.68.28,7.23.65,7.88-.46,2.98-5.09,7.72-3.26,11.9-3.32,17.7-.26,35.4-.27,53.09-.58,10.34-.18,20.67-1.13,31-1.08,8.29.05,16.6,1.83,24.85,1.56,44.78-1.47,89.5-5.16,134.37-1.03,12.3,1.13,24.76.89,37.15,1.01,9.37.09,18.76,0,28.11-.47,6.7-.34,13.35-2.02,20.03-2.03,7.52,0,15.05,1.86,22.56,1.74,28.33-.43,56.66-1.36,84.99-2.06,5.25-.13,10.5-.02,16.19-.02.49-8.02,1.42-15.25,1.27-22.47-.27-13.12-1.76-26.23-1.66-39.34.11-14.08-1.73-27.98-.18-42.32,2.42-22.32.48-45.03.4-67.58-.04-11.83-.03-23.66-.09-35.5,0-1.58-.18-3.18-.44-4.75-.64-3.96-1.98-7.92-1.97-11.87.02-17.07,1.12-34.16.51-51.2-.7-19.26-2.8-38.48-4.33-57.72-.03-.39-.53-.75-1.24-1.68-60.24,0-120.9,0-181.56,0-.02-.35-.04-.69-.06-1.04,7.06-.79,14.13-1.57,21.19-2.36-9.98-2.09-20.02-2.79-30.08-2.94-17.85-.26-35.71-.38-53.57-.16-13.62.16-27.23.96-40.85,1.4-1.99.06-4.02-.24-6.01-.5-3.23-.42-6.44-1.35-9.67-1.37-19.96-.13-39.92-.06-59.87-.06-.02-.24-.04-.48-.05-.72,2.69-.27,5.39-.55,9.71-.99-75.67-5.25-149.59,2.65-223.53,2.05-.04-.76-.08-1.52-.13-2.28,3.55-.56,7.1-1.13,10.65-1.69l-.28-1.04h-21.59c2.7.9,4.34,1.45,5.98,1.99Zm10.37,265.5c-8.73-5.58-19.35-8.8-29.29-12.78-7.15-2.86-14.61-5.11-21.76-7.98-3.23-1.3-8.86-4.2-8.57-5.07,1.29-3.89,3.42-8.47,6.91-10.66,9.34-5.86,20.2-8.19,31.71-7.4,2.01.14,4.05.41,6.04.25,13.97-1.17,16.07-5.02,8.54-15.19-4.49-6.07-9.14-12.07-13.04-18.45-2.46-4.03-5.5-5.25-10.34-5.08-19.48.69-38.96,1.4-58.45,1.52-11.61.07-22.85-.18-34.17,3.8-10.72,3.76-13.94.83-12.06-9.35,1.7-9.18,3.95-18.33,6.81-27.27,2.49-7.8,16.98-13.42,27.42-11.67,16.84,2.82,33.72,5.43,50.58,8.13l1.63-1.75c-3.69-7.17-7.53-14.27-11.03-21.51-8.37-17.33-4.82-28.71,13.27-38.21,11.96-6.28,24.74-11.37,37.41-16.48,7.76-3.13,17.15-1.49,19.6,2.47,3.89,6.3,1.47,18.16-4.87,22.58-5.78,4.03-12.52,7.18-17.47,11.88-3.85,3.66-6.01,8.98-8.14,13.84-1.75,3.99-2.33,8.39-3.43,12.61-.87-.02-1.74-.05-2.61-.07-.67-1.5-1.47-2.96-1.97-4.5-1.26-3.9-1.91-8.03-3.75-11.69-.99-1.97-4.76-4.81-5.8-4.38-2.99,1.24-7.17,3.82-7.37,6.11-.45,5.18.69,10.63,2.15,15.75,3.37,11.85,11.93,15.87,25.63,15.38,14.37-.52,28.66.66,42.78-3.43,4.45-1.29,11.16-1.39,14.61.81,5.71,3.63,6.29,14.88,3.15,20.35-7.63,13.27-15.25,26.55-22.65,39.93-.72,1.3-.59,4,.42,4.88,5.56,4.88,10.87,10.38,17.46,13.81,11.64,6.06,14.87,24.14,4.05,31.51-6.35,4.33-13.79,7.81-21.32,10.18-7.34,2.3-14.54,1.98-22.08-2.84Zm-190.08,67.57c0-13.29,0-26.58,0-41.32,6.07,14.71,3.83,28.01,0,41.32Zm501.39-220.61c19.71,3.77,36.98,12,51.88,24.22,2.23,1.83,5.2,3.54,6.21,5.87,3.16,7.32,9.21,7.28,16.14,6.34,36.25-4.92,72.06-2.89,107.51,5.49,3.12.74,6.93-.18,10.23-.97,5.85-1.41,11.45-3.84,17.36-4.77,2.66-.42,7.15,1,8.47,2.9,2.37,3.41,3.08,7.82-1.97,10.75-11.77,6.83-24.01,12.34-38.59,11.67-3.67-.17-7.36-.03-12.69-.03,2.88-4.22,4.94-7.25,7.5-10.99-3.99-1.18-7.64-2.53-11.42-3.33-25.87-5.46-51.92-6.88-78.18-2.46-.5.08-.99.18-1.49.25-13.01,1.79-13.71,1.77-13.96,13.53-.32,14.57-28.5,32.24-45.66,19.78-5.24-3.8-8.65-10.75-10.62-16.85-2.7-8.38-1.57-17.11,2.48-25.39.99-2.02,1.28-6.39.54-6.66-2.81-1.02-6.47-1.59-9.23-.77-1.74.52-3.37,3.81-3.44,5.9-.19,5.44.7,10.91.77,16.37.05,4.09-.45,8.18-.83,12.26-1.23,13.28-10.08,20.42-23.76,23.23-4.7.96-9.66.91-14.5,1.32,1.59-3.56,3.07-7.17,4.81-10.68,1.13-2.28,2.63-4.42,4.01-6.6,3.74-5.92,4.31-11.87,1.22-18.28-3.12-6.47-6.61-13.01-8.14-19.85-1.66-7.43-2.01-15.28-1.46-22.87.42-5.89,8.78-11.47,16.85-11.6,6.66-.1,13.44.95,20,2.2Zm-132.35-65.68c1.36,5.1,3.34,10.1,4.15,15.27,2.5,16.01,8.09,30.97,16.94,45.02,2.59,4.12,4.28,8.7,6.51,13.34,5.01-1.4,9.93-2.99,14.98-4.14,9.68-2.21,15.48,1.8,15.15,10.84-.57,15.52,9,27.53,16.95,39.98,1.48,2.31,6.53,2.93,10.06,3.95,3.35.97,6.88,1.43,10.33,2.12.03.62.07,1.23.1,1.85-2.35,1.43-4.69,2.86-7.38,4.5,1.64,3.4,3.24,6.73,4.84,10.06-.49.57-.98,1.14-1.47,1.71-4.02-1.22-8.05-2.45-11-3.34-8.96,3.09-17.33,5.97-25.71,8.86.02.6.03,1.2.05,1.8,7.72,2.06,15.44,4.11,23.23,6.19-4.98,7.94-11.86,10.86-20.72,9.64-8.21-1.13-16.5-1.83-26.17-2.88,9.16,15.43,15.55,31.12,30.96,41.54,6.27,4.25,13.02,3.59,21.18-.56,4.51-2.3,10.19-4.14,15.19-3.88,6.79.35,16.62,14.41,14.19,20.11-3.02,7.09-6.71,14.35-11.98,20.15-6.51,7.16-14.47,13.47-22.68,19.1-12.74,8.74-26.89,14.87-43.63,11.66-3.89-.74-7.39-3.13-13.25-5.72,15.67-8.3,32.37-11.21,41.08-23.78-17.74-29.29-35.19-57.99-52.5-86.77-2.52-4.19-4.52-8.65-6.54-13.07-1.71-3.73-2.29-8.14-8.8-7.41-6.88.77-14.6-.51-17.57,7.68-.96,2.65-2.77,5.05-5.33,7.21-3.47-7.91-2.09-15.43.79-22.53,1.7-4.19,1.82-6.74-2.07-10-3.72-3.11-6.2-7.43-9.23-11.22-.76.1-1.53.2-2.29.3.04,11.07-.73,22.2.33,33.18,1.26,13.13,4.12,26.13,6.16,39.2.24,1.53.13,3.35-.61,4.68-.78,1.4-2.51,3.28-3.83,3.29-1.35,0-3.42-1.78-3.95-3.17-2.66-6.89-4.88-13.91-7.33-20.87-.92-2.6-1.74-5.29-3.14-7.69-3.43-5.9-6.05-6.18-11.24-1.54-3.41,3.05-6.63,6.3-10.24,9.15-1.85,1.46-4.38,2.24-7.42,3.72-.34-2.37-.81-3.49-.59-4.5,2.75-12.73-2.18-24.68-3.74-36.99-1.25-9.83,2.9-20.42,5.88-30.38,1.33-4.43,20.45-10.45,25.25-8.45,2.91,1.21,5.15,4.11,7.15,6.61,1.82,2.27,2.9,5.02,4.94,8.72,3.45-6.12,5.05-11.91,9.11-15.34,4.1-3.46,10.64-4.58,17.27-7.18-6.67-12.19-4.41-27.05-15.51-38.88-3.75-4-2.07-12.97-1.15-19.48.98-6.92,4.01-13.61,6.12-20.41,1.81-5.81,8.46-8.95,18.24-9.41,6.82-.32,8.67,3.4,9.94,8.16ZM73.37,61.09c-2.18,42.82,2.05,85.49-1.68,127.92-.95-.02-1.9-.04-2.85-.06V57.8c10.06,0,18.41,0,26.77,0,.05.6.09,1.2.14,1.8-7.19.48-14.39.96-22.36,1.49Zm324.16-1.66c0,.34.02.69.02,1.03-24.87,0-49.74,0-74.61,0,0-.34,0-.69,0-1.03,24.86,0,49.73,0,74.59,0Zm-159.22,1.13c-43.43,0-86.87,0-130.45,0,8.9-3.89,113.44-4.71,130.45,0Z"/>
      <path class="cls-1" d="m807.47,168.49c-203.32-202.37-468.85-39.79-739.13-50.04,75.24,240.03,243.67,304.31,605.33,234.07,72.62-14.11,167.5-150.49,133.8-184.03Z"/>
    </g>
  </g>
  <text class="cls-2" transform="translate(112.02 314.79)"><tspan x="0" y="0">梵刹</tspan></text>
</svg>